# xmcd CD database file
#
# Track frame offsets:
#	150
#	10371
#	28729
#	52011
#	69181
#	87780
#	107738
#	131430
#	148551
#	164362
#	184171
#	202619
#	223085
#	241443
#
# Disc length: 3419 seconds
#
# Revision: 0
# Processed by: cddbd v1.5.1PL0 Copyright (c) Steve Scherf et al.
# Submitted via: CDex 1.51
#
DISCID=bf0d590e
DTITLE=Al Herman - Summit Ridge Band Live!
DYEAR=2003
DGENRE=Jazz
TTITLE0=Orange Blossom Special
TTITLE1=Old folks
TTITLE2=Rhythm King
TTITLE3=Storyvill Blues
TTITLE4=The Song has Ended
TTITLE5=There'll Be Some Changes Made
TTITLE6=Baby Won't you Please Come Home
TTITLE7=Limehouse Blues
TTITLE8=Whats the Use
TTITLE9=Creole Love Song/Mood Indigo
TTITLE10=The Da Da Strain
TTITLE11=Until the Real Thing Comes Along
TTITLE12=Apex blues
TTITLE13=Duff Campbell's Revenge
EXTD=YEAR: 2003
EXTT0=
EXTT1=
EXTT2=
EXTT3=
EXTT4=
EXTT5=
EXTT6=
EXTT7=
EXTT8=
EXTT9=
EXTT10=
EXTT11=
EXTT12=
EXTT13=
PLAYORDER=
